<?xml version="1.0" encoding="UTF-8"?>
<svg id="Layer_1" xmlns="http://www.w3.org/2000/svg" version="1.1" viewBox="0 0 500 500">
  <!-- Generator: Adobe Illustrator 29.3.1, SVG Export Plug-In . SVG Version: 2.1.0 Build 151)  -->
  <defs>
    <style>
      .st0 {
        fill: #fff;
      }
    </style>
  </defs>
  <rect width="500" height="500"/>
  <path class="st0" d="M156.22,291.5c-37.54,11.88-56.32,34.45-56.32,67.73,0,18.12,7.34,32.81,22.03,44.06,14.69,11.25,32.97,16.88,54.84,16.88,13.75,0,24.45-1.79,32.11-5.36-.31-1.09-.47-3.11-.47-6.06,0-7.92,2.23-15.19,6.68-21.79,4.45-6.61,9.41-9.91,14.88-9.91,2.81,0,5.12,1.01,6.91,3.05,1.79,2.03,2.7,4.76,2.7,8.2,0,4.84-2.34,9.8-7.03,14.88-4.69,5.08-10.63,9.18-17.81,12.3,3.44,9.69,10.04,17.23,19.82,22.62,9.77,5.39,21.71,8.09,35.8,8.09,21.76,0,40.59-6.51,56.49-19.52,15.89-13.01,23.84-27.67,23.84-43.97,0-2.98-.16-5.25-.47-6.82-1.09.31-3.28.47-6.56.47-5.31,0-9.84-1.13-13.59-3.4-3.75-2.27-5.62-5.12-5.62-8.55,0-2.5.78-4.57,2.34-6.21,1.56-1.64,3.67-2.46,6.33-2.46,10.16,0,16.72,5.47,19.69,16.41,18.28-2.34,32.77-9.61,43.48-21.8,10.7-12.19,16.05-27.66,16.05-46.41,0-8.59-2.07-16.95-6.21-25.08-4.14-8.12-9.81-14.92-16.99-20.39-10,4.38-19.92,6.56-29.77,6.56-16.72,0-32.19-3.99-46.41-11.98-5.16,4.07-9.84,7.28-14.06,9.63v52.74c0,2.5-.43,3.75-1.29,3.75l-1.29-3.75-1.88-50.86-10.08,5.39-.94-.94,11.02-6.34-.47-15.27c0-2.5.82-3.76,2.46-3.76s2.46,1.26,2.46,3.76v13.39l11.95-8.69c-9.53-6.73-14.3-11.2-14.3-13.39l.47-.94c7.03,5.8,12.5,9.95,16.41,12.45,31.56-24.28,47.34-53.95,47.34-89.03,0-5.78-.94-13.12-2.81-22.03l-5.16.47c-11.88,0-22.27,3.98-31.17,11.95,0,7.97-.52,13.24-1.56,15.82-1.04,2.58-2.84,3.87-5.4,3.87-1.92,0-2.88-1.79-2.88-5.39,0-5.62,2.34-11.17,7.03-16.64-.63-12.03-6.06-23.28-16.29-33.75-10.24-10.47-22.7-18.28-37.38-23.44l-3.28.94c-1.88,0-3.2-.87-3.98-2.61l-1.88-.44c-1.41,1.25-2.5,1.88-3.28,1.88l-3.52-2.58h-2.81c-.63,3.28-2.58,4.92-5.86,4.92-2.81,0-4.53-1.64-5.16-4.92h-1.41c-.94,1.72-2.11,2.58-3.52,2.58s-2.66-.47-3.75-1.41l-1.41.44c-.63,2.05-1.96,3.08-3.98,3.08-.78,0-1.88-.31-3.28-.94-11.72,4.53-21.45,11.52-29.18,20.98-7.73,9.46-11.92,20.2-12.54,32.23,5.78,4.22,8.67,8.44,8.67,12.66,0,3.13-1.09,4.69-3.28,4.69-2.34,0-4.22-1.27-5.62-3.83-1.41-2.55-2.11-5.37-2.11-8.46v-2.78c-8.13-4.48-17.27-6.72-27.42-6.72-5.94,0-11.02.63-15.23,1.88-1.09,5.94-1.64,12.34-1.64,19.22,0,25.16,7.58,47.11,22.73,65.86,5.78,7.19,13.59,14.06,23.44,20.62,2.81,1.87,5.86,3.6,9.14,5.16,8.28-5.62,15.39-13.51,21.33-23.67l1.64-2.11.94,1.41c0,.94-2.07,4.26-6.21,9.96-4.14,5.71-9.1,10.8-14.88,15.28,5.94,2.55,15.23,6.17,27.89,10.85-1.25,0-5.35-.94-12.3-2.81-6.95-1.88-13.09-3.9-18.4-6.09-2.5,1.41-5.08,2.66-7.73,3.75-7.03,2.97-15.63,5.39-25.78,7.27-3.28.63-6.17.94-8.67.94-18.4,0-34.01-5.66-46.85-16.99-12.83-11.33-19.25-25.98-19.25-43.94,0-15.15,4.76-28.91,14.29-41.25,9.52-12.34,22.02-20.86,37.47-25.55,5.78-28.28,19.64-51.01,41.58-68.2,21.94-17.19,47.27-25.78,76-25.78s51.88,8.27,73.19,24.79c21.31,16.53,34.94,38.03,40.87,64.5,19.83,1.72,35.44,8.79,46.84,21.21,11.4,12.42,17.1,27.46,17.1,45.12,0,10.63-2.81,20.82-8.44,30.59-5.62,9.77-13.05,17.31-22.27,22.62,6.56,5.31,11.87,12.38,15.94,21.21,4.06,8.83,6.09,17.62,6.09,26.37,0,18.91-5.71,34.96-17.11,48.16-11.41,13.2-26.48,21.13-45.23,23.79.31,1.25.47,3.52.47,6.8,0,16.72-8.39,32.03-25.17,45.94-16.78,13.91-37.2,20.86-61.23,20.86-13.11,0-25.13-2.89-36.06-8.67-10.93-5.78-18.11-13.59-21.54-23.44-8.12,3.75-20.37,5.62-36.76,5.62-22.32,0-41.1-5.98-56.32-17.93s-22.83-27.23-22.83-45.82c0-16.41,5.42-30.86,16.27-43.36,10.85-12.5,26.02-21.56,45.54-27.19,4.68-1.25,13.81-2.89,27.39-4.92,4.37-.62,7.57-.94,9.6-.94,16.07,0,33.63,4.45,52.67,13.36,2.34,1.09,5.38,2.74,9.13,4.92,16.39,9.53,28.48,20.55,36.29,33.05l4.45,6.8c4.21,8.91,6.32,17.73,6.32,26.48,0,11.72-2.74,21.29-8.2,28.71-5.47,7.42-12.58,11.13-21.33,11.13-7.5,0-11.25-1.72-11.25-5.16,0-.94.43-1.88,1.29-2.81.86-.94,1.76-1.41,2.7-1.41s2.26,1.01,3.98,3.05c1.72,2.03,3.43,3.05,5.16,3.05,7.65,0,13.71-3.25,18.16-9.75,4.45-6.5,6.68-15.38,6.68-26.66,0-9.39-1.88-17.76-5.63-25.13-1.88-3.6-3.21-6.03-3.99-7.28-8.14-12.37-20.26-23.09-36.37-32.17-2.04-1.09-4.77-2.5-8.21-4.23-17.99-8.77-35.28-13.15-51.86-13.15-.78,0-2.19.16-4.23.47-2.04.31-3.52.47-4.46.47-7.98,0-17.13,1.64-27.45,4.92ZM152.17,231.83c-17.03-19.22-25.55-42.42-25.55-69.61,0-4.84.31-10.78.94-17.81-13.35,4.69-24.07,13.12-32.16,25.31-8.09,12.19-12.14,25.24-12.14,39.14,0,17.19,6.13,31.08,18.38,41.67,12.25,10.59,26.2,15.89,41.85,15.89,2.34,0,4.84-.31,7.5-.95,14.22-3.33,22.89-5.7,26.02-7.13l4.92-2.14c-2.03-1.25-3.98-2.34-5.86-3.28-6.25-3.12-14.22-10.15-23.91-21.09ZM356.78,137.52c-6.56-25.16-19.92-45.15-40.08-60-20.16-14.84-43.75-22.27-70.78-22.27-29.06,0-53.79,7.72-74.18,23.14s-33.56,36.31-39.49,62.64c3.75-1.25,8.36-1.88,13.83-1.88,10,0,19.3,2.19,27.89,6.56,1.88-25.68,16.41-43.97,43.59-54.86.94-2.18,2.26-3.27,3.98-3.27,1.09,0,2.03.23,2.81.7l1.88-.47c.62-2.34,2.03-3.52,4.22-3.52l3.05,2.11,1.88-.47c.62-3.59,2.34-5.39,5.16-5.39,2.66,0,4.61,1.96,5.86,5.86h2.81c1.25-1.41,2.42-2.11,3.52-2.11,2.03,0,3.28,1.02,3.75,3.05l1.88.47c1.41-.47,2.58-.7,3.52-.7,1.25,0,2.5.94,3.75,2.81,14.37,4.69,26.84,12.34,37.38,22.97,10.55,10.63,16.68,22.35,18.4,35.16,4.22-3.28,9.45-5.98,15.7-8.09,6.25-2.11,11.56-3.16,15.94-3.16l3.75.7ZM150.3,382.67c5.62,3.59,11.25,5.39,16.88,5.39,7.97,0,14.92-3.05,20.86-9.14l1.17-.94.94,1.41c0,.94-2.31,3.05-6.91,6.33-4.61,3.28-9.81,4.92-15.59,4.92-6.41,0-12.66-1.81-18.75-5.43l-1.88.47c-1.88,0-2.81-1.26-2.81-3.78-2.03-1.89-3.52-3.31-4.45-4.25-2.5,0-3.75-1.18-3.75-3.54,0-.94.31-1.73.94-2.36-.94-1.89-1.41-3.7-1.41-5.43-1.56,0-2.34-.95-2.34-2.83,0-1.26.62-2.21,1.88-2.83,0-11.33,3.55-19.91,10.66-25.73,7.11-5.82,12.69-8.74,16.76-8.74.94,0,1.41.43,1.41,1.29l-2.34,1.29c-15.78,6.09-23.67,16.72-23.67,31.88.94.47,1.41,1.41,1.41,2.81l-.94,1.88c0,1.88.47,3.52,1.41,4.92,2.66,0,3.98,1.25,3.98,3.75,0,.78-.31,1.41-.94,1.88,1.56,2.03,3.12,3.36,4.69,3.98,1.88,0,2.81.94,2.81,2.81ZM183.81,286.75c6.56,16.9,16.41,30.19,29.53,39.89s27.73,14.55,43.83,14.55c9.69,0,20.23-1.96,31.64-5.88l1.88-.95c19.53-8.16,33.05-22.05,40.55-41.67l1.41-2.59c.94,0,1.41.47,1.41,1.41,0,4.06-3.33,11.37-9.98,21.91s-16.31,19.73-28.98,27.54l-2.34,1.41c-14.71,7.35-30.27,11.02-46.7,11.02-20.65,0-39.07-5.43-55.27-16.29-16.19-10.86-27.73-26.05-34.61-45.59l-.94-2.81c-1.72-7.34-2.97-14.06-3.76-20.16l-.7-3.05-.47-13.36c0-7.19.55-13.9,1.64-20.16l.47-3.28c4.06-19.69,11.52-36.21,22.38-49.57,10.86-13.36,21.8-23.24,32.81-29.65,11.02-6.41,17.38-9.61,19.1-9.61.94,0,1.41.63,1.41,1.88l-2.8,1.88c-33.13,16.43-49.7,49.75-49.7,99.96l.47,5.87v3.75l.94,5.39.47,2.82c1.09,7.51,2.89,15.02,5.39,22.53l.94,2.82ZM182.17,156.5c0-1.56-1.96-3.9-5.86-7.03,0,2.5.39,4.89,1.17,7.15.78,2.27,1.64,3.4,2.58,3.4,1.41,0,2.11-1.17,2.11-3.52ZM252.58,303.2c-5.28,4.85-10.26,8.8-14.92,11.85-4.66,3.05-7.54,4.58-8.62,4.58l-.94-.94c8.59-7.98,14.06-14.55,16.41-19.71.31-.78.62-1.64.94-2.58,1.88-6.42,2.81-11.03,2.81-13.85,0-4.53-.94-9.46-2.83-14.78-1.89-5.32-6.73-13.22-14.51-23.7-7.79-10.48-12.7-18.78-14.75-24.88-2.04-6.1-3.07-11.89-3.07-17.37,0-13.45,4.73-25.47,14.19-36.03s15.67-15.84,18.62-15.84l2.34.94-3.28,3.05c-10.94,8.14-16.41,17.06-16.41,26.76,0,5.16,1.06,10.6,3.18,16.31,2.12,5.71,7.7,13.96,16.74,24.76,9.03,10.79,14.81,19.79,17.33,26.99,2.51,7.2,3.77,14.16,3.77,20.89,0,10.33-5.05,20.89-15.15,31.68l-1.86,1.88ZM214.51,412.91c6.19-2.81,11.45-6.53,15.78-11.13,4.33-4.61,6.5-8.87,6.5-12.77,0-6.09-2.71-9.14-8.12-9.14-4.17,0-7.73,2.7-10.67,8.09-2.94,5.39-4.41,11.84-4.41,19.34,0,1.72.31,3.59.93,5.62ZM275.22,134.97c0,3.92.98,7.79,2.95,11.63,1.96,3.84,7.15,9.12,15.56,15.85,8.41,6.73,13.79,12.49,16.15,17.26,2.36,4.78,3.54,9.59,3.54,14.44,0,9.71-3.59,18.4-10.76,26.07-7.17,7.67-12.65,11.51-16.43,11.51l-1.41-.94,2.11-2.11c5.94-4.23,8.91-10.25,8.91-18.08,0-3.44-.86-6.93-2.56-10.45-1.71-3.52-6.44-8.73-14.2-15.62-7.76-6.89-12.81-12.92-15.13-18.08s-3.49-10.33-3.49-15.5c0-8.45,3.21-16.16,9.63-23.13,6.42-6.97,10.87-10.45,13.34-10.45l2.34.94c-7.03,7.05-10.55,12.6-10.55,16.67ZM318.81,153.22c-2.81,4.22-4.22,7.58-4.22,10.08l.94,4.45c2.19,0,3.28-4.84,3.28-14.53ZM389.94,254.47c18.36-10.79,27.54-27.46,27.54-50.01,0-15.5-5.14-29.6-15.42-42.28-10.28-12.69-23.89-20.2-40.83-22.55,1.56,7.51,2.34,14.88,2.34,22.08,0,35.54-16.17,65.51-48.52,89.93,13.59,7.04,27.97,10.57,43.12,10.57,10.03,0,19.2-1.98,27.52-5.95-9.73-6.03-19.53-9.05-29.39-9.05l-9.84.23-3.52-.89c0-1.75,4.14-2.63,12.42-2.63,11.9,0,23.42,3.52,34.57,10.55ZM349.52,372.36c-3.13-9.22-8.36-13.83-15.7-13.83-4.22,0-6.33,1.72-6.33,5.16,0,2.19,1.52,4.26,4.57,6.21,3.05,1.95,6.37,2.93,9.96,2.93s6.09-.16,7.5-.47Z"/>
</svg>